<?xml version="1.0" standalone="no"?>
<!DOCTYPE svg PUBLIC "-//W3C//DTD SVG 20010904//EN"
 "http://www.w3.org/TR/2001/REC-SVG-20010904/DTD/svg10.dtd">
<svg version="1.0" xmlns="http://www.w3.org/2000/svg"
 width="250.000000pt" height="250.000000pt" viewBox="0 0 250.000000 250.000000"
 preserveAspectRatio="xMidYMid meet">
<metadata>
Created by potrace 1.14, written by Peter Selinger 2001-2017
</metadata>
<g transform="translate(0.000000,250.000000) scale(0.100000,-0.100000)"
fill="#000000" stroke="none">
<path d="M0 1875 l0 -625 105 0 105 0 0 220 0 220 75 0 75 0 0 -170 0 -170
140 0 140 0 0 170 0 170 75 0 75 0 0 -220 0 -220 70 0 70 0 0 220 0 220 70 0
70 0 0 -220 0 -220 145 0 145 0 0 220 0 220 70 0 70 0 0 -220 0 -220 80 0 80
0 0 221 0 221 208 -4 c237 -3 263 -11 317 -87 24 -34 30 -54 33 -111 5 -83 -9
-129 -53 -175 l-33 -36 29 -14 c21 -11 66 -15 184 -15 l155 0 0 625 0 625
-1250 0 -1250 0 0 -625z"/>
<path d="M1802 1443 l3 -98 60 -3 c97 -5 164 7 191 33 41 41 28 131 -23 154
-13 6 -71 11 -129 11 l-105 0 3 -97z"/>
</g>
</svg>
